<?xml version="1.0" encoding="UTF-8"?>
<!--Generator: Apple Native CoreSVG 123-->
<!DOCTYPE svg
PUBLIC "-//W3C//DTD SVG 1.1//EN"
       "http://www.w3.org/Graphics/SVG/1.1/DTD/svg11.dtd">
<svg version="1.1" xmlns="http://www.w3.org/2000/svg" xmlns:xlink="http://www.w3.org/1999/xlink" width="3300" height="2200">
 <!--glyph: "uni1002B4.medium", point size: 100.000000, font version: "Version 15.0d5e5", template writer version: "5"-->
 <g id="Notes">
  <rect height="2200" id="artboard" style="fill:white;opacity:1" width="3300" x="0" y="0"/>
  <line id="" style="fill:none;stroke:black;opacity:1;stroke-width:0.5;" x1="263" x2="3036" y1="292" y2="292"/>
  <text style="stroke:none;fill:black;font-family:-apple-system,&quot;SF Pro Display&quot;,&quot;SF Pro Text&quot;,Helvetica,sans-serif;font-weight:bold;" transform="matrix(1 0 0 1 263 322)">Weight/Scale Variations</text>
  <text style="stroke:none;fill:black;font-family:-apple-system,&quot;SF Pro Display&quot;,&quot;SF Pro Text&quot;,Helvetica,sans-serif;text-anchor:middle;" transform="matrix(1 0 0 1 559.711 322)">Ultralight</text>
  <text style="stroke:none;fill:black;font-family:-apple-system,&quot;SF Pro Display&quot;,&quot;SF Pro Text&quot;,Helvetica,sans-serif;text-anchor:middle;" transform="matrix(1 0 0 1 856.422 322)">Thin</text>
  <text style="stroke:none;fill:black;font-family:-apple-system,&quot;SF Pro Display&quot;,&quot;SF Pro Text&quot;,Helvetica,sans-serif;text-anchor:middle;" transform="matrix(1 0 0 1 1153.13 322)">Light</text>
  <text style="stroke:none;fill:black;font-family:-apple-system,&quot;SF Pro Display&quot;,&quot;SF Pro Text&quot;,Helvetica,sans-serif;text-anchor:middle;" transform="matrix(1 0 0 1 1449.84 322)">Regular</text>
  <text style="stroke:none;fill:black;font-family:-apple-system,&quot;SF Pro Display&quot;,&quot;SF Pro Text&quot;,Helvetica,sans-serif;text-anchor:middle;" transform="matrix(1 0 0 1 1746.56 322)">Medium</text>
  <text style="stroke:none;fill:black;font-family:-apple-system,&quot;SF Pro Display&quot;,&quot;SF Pro Text&quot;,Helvetica,sans-serif;text-anchor:middle;" transform="matrix(1 0 0 1 2043.27 322)">Semibold</text>
  <text style="stroke:none;fill:black;font-family:-apple-system,&quot;SF Pro Display&quot;,&quot;SF Pro Text&quot;,Helvetica,sans-serif;text-anchor:middle;" transform="matrix(1 0 0 1 2339.98 322)">Bold</text>
  <text style="stroke:none;fill:black;font-family:-apple-system,&quot;SF Pro Display&quot;,&quot;SF Pro Text&quot;,Helvetica,sans-serif;text-anchor:middle;" transform="matrix(1 0 0 1 2636.69 322)">Heavy</text>
  <text style="stroke:none;fill:black;font-family:-apple-system,&quot;SF Pro Display&quot;,&quot;SF Pro Text&quot;,Helvetica,sans-serif;text-anchor:middle;" transform="matrix(1 0 0 1 2933.4 322)">Black</text>
  <line id="" style="fill:none;stroke:black;opacity:1;stroke-width:0.5;" x1="263" x2="3036" y1="1903" y2="1903"/>
  <g id="" transform="matrix(1 0 0 1 263 1933)">
   <path d="M 9.24805 0.830078 C 13.5547 0.830078 17.1387 -2.74414 17.1387 -7.05078 C 17.1387 -11.3574 13.5449 -14.9316 9.23828 -14.9316 C 4.94141 -14.9316 1.36719 -11.3574 1.36719 -7.05078 C 1.36719 -2.74414 4.95117 0.830078 9.24805 0.830078 Z M 9.24805 -0.654297 C 5.70312 -0.654297 2.87109 -3.49609 2.87109 -7.05078 C 2.87109 -10.6055 5.69336 -13.4473 9.23828 -13.4473 C 12.793 -13.4473 15.6348 -10.6055 15.6445 -7.05078 C 15.6543 -3.49609 12.8027 -0.654297 9.24805 -0.654297 Z M 9.22852 -3.42773 C 9.69727 -3.42773 9.9707 -3.74023 9.9707 -4.25781 L 9.9707 -6.31836 L 12.1973 -6.31836 C 12.6953 -6.31836 13.0371 -6.57227 13.0371 -7.04102 C 13.0371 -7.51953 12.7148 -7.7832 12.1973 -7.7832 L 9.9707 -7.7832 L 9.9707 -10.0098 C 9.9707 -10.5273 9.69727 -10.8496 9.22852 -10.8496 C 8.75977 -10.8496 8.50586 -10.5078 8.50586 -10.0098 L 8.50586 -7.7832 L 6.29883 -7.7832 C 5.78125 -7.7832 5.44922 -7.51953 5.44922 -7.04102 C 5.44922 -6.57227 5.80078 -6.31836 6.29883 -6.31836 L 8.50586 -6.31836 L 8.50586 -4.25781 C 8.50586 -3.75977 8.75977 -3.42773 9.22852 -3.42773 Z"/>
  </g>
  <g id="" transform="matrix(1 0 0 1 281.506 1933)">
   <path d="M 11.709 2.91016 C 17.1484 2.91016 21.6699 -1.60156 21.6699 -7.05078 C 21.6699 -12.4902 17.1387 -17.0117 11.6992 -17.0117 C 6.25 -17.0117 1.74805 -12.4902 1.74805 -7.05078 C 1.74805 -1.60156 6.25977 2.91016 11.709 2.91016 Z M 11.709 1.25 C 7.09961 1.25 3.41797 -2.44141 3.41797 -7.05078 C 3.41797 -11.6504 7.08984 -15.3516 11.6992 -15.3516 C 16.2988 -15.3516 20 -11.6504 20.0098 -7.05078 C 20.0195 -2.44141 16.3086 1.25 11.709 1.25 Z M 11.6797 -2.41211 C 12.207 -2.41211 12.5195 -2.77344 12.5195 -3.33984 L 12.5195 -6.23047 L 15.5762 -6.23047 C 16.123 -6.23047 16.5039 -6.51367 16.5039 -7.03125 C 16.5039 -7.55859 16.1426 -7.86133 15.5762 -7.86133 L 12.5195 -7.86133 L 12.5195 -10.9277 C 12.5195 -11.5039 12.207 -11.8555 11.6797 -11.8555 C 11.1621 -11.8555 10.8789 -11.4844 10.8789 -10.9277 L 10.8789 -7.86133 L 7.83203 -7.86133 C 7.25586 -7.86133 6.89453 -7.55859 6.89453 -7.03125 C 6.89453 -6.51367 7.28516 -6.23047 7.83203 -6.23047 L 10.8789 -6.23047 L 10.8789 -3.33984 C 10.8789 -2.79297 11.1621 -2.41211 11.6797 -2.41211 Z"/>
  </g>
  <g id="" transform="matrix(1 0 0 1 304.914 1933)">
   <path d="M 14.9707 5.67383 C 21.9336 5.67383 27.6855 -0.078125 27.6855 -7.04102 C 27.6855 -14.0039 21.9238 -19.7559 14.9609 -19.7559 C 7.99805 -19.7559 2.25586 -14.0039 2.25586 -7.04102 C 2.25586 -0.078125 8.00781 5.67383 14.9707 5.67383 Z M 14.9707 3.85742 C 8.92578 3.85742 4.08203 -1.00586 4.08203 -7.04102 C 4.08203 -13.0762 8.91602 -17.9395 14.9609 -17.9395 C 20.9961 -17.9395 25.8594 -13.0762 25.8691 -7.04102 C 25.8789 -1.00586 21.0059 3.85742 14.9707 3.85742 Z M 14.9414 -1.06445 C 15.5176 -1.06445 15.8594 -1.45508 15.8594 -2.06055 L 15.8594 -6.13281 L 20.0977 -6.13281 C 20.6934 -6.13281 21.1133 -6.46484 21.1133 -7.02148 C 21.1133 -7.59766 20.7227 -7.93945 20.0977 -7.93945 L 15.8594 -7.93945 L 15.8594 -12.1875 C 15.8594 -12.8027 15.5176 -13.1934 14.9414 -13.1934 C 14.3848 -13.1934 14.0625 -12.7832 14.0625 -12.1875 L 14.0625 -7.93945 L 9.82422 -7.93945 C 9.20898 -7.93945 8.80859 -7.59766 8.80859 -7.02148 C 8.80859 -6.46484 9.23828 -6.13281 9.82422 -6.13281 L 14.0625 -6.13281 L 14.0625 -2.06055 C 14.0625 -1.47461 14.3848 -1.06445 14.9414 -1.06445 Z"/>
  </g>
  <text style="stroke:none;fill:black;font-family:-apple-system,&quot;SF Pro Display&quot;,&quot;SF Pro Text&quot;,Helvetica,sans-serif;font-weight:bold;" transform="matrix(1 0 0 1 263 1953)">Design Variations</text>
  <text style="stroke:none;fill:black;font-family:-apple-system,&quot;SF Pro Display&quot;,&quot;SF Pro Text&quot;,Helvetica,sans-serif;" transform="matrix(1 0 0 1 263 1971)">Symbols are supported in up to nine weights and three scales.</text>
  <text style="stroke:none;fill:black;font-family:-apple-system,&quot;SF Pro Display&quot;,&quot;SF Pro Text&quot;,Helvetica,sans-serif;" transform="matrix(1 0 0 1 263 1989)">For optimal layout with text and other symbols, vertically align</text>
  <text style="stroke:none;fill:black;font-family:-apple-system,&quot;SF Pro Display&quot;,&quot;SF Pro Text&quot;,Helvetica,sans-serif;" transform="matrix(1 0 0 1 263 2007)">symbols with the adjacent text.</text>
  <rect height="14" id="" style="fill:#00AEEF;stroke:none;opacity:0.4;" width="3" x="776" y="1919"/>
  <g id="" transform="matrix(1 0 0 1 779 1933)">
   <path d="M 10.5273 0 L 12.373 0 L 7.17773 -14.0918 L 5.43945 -14.0918 L 0.244141 0 L 2.08984 0 L 3.50586 -4.0332 L 9.11133 -4.0332 Z M 6.2793 -11.9531 L 6.33789 -11.9531 L 8.59375 -5.52734 L 4.02344 -5.52734 Z"/>
  </g>
  <rect height="14" id="" style="fill:#00AEEF;stroke:none;opacity:0.4;" width="3" x="791.617" y="1919"/>
  <text style="stroke:none;fill:black;font-family:-apple-system,&quot;SF Pro Display&quot;,&quot;SF Pro Text&quot;,Helvetica,sans-serif;font-weight:bold;" transform="matrix(1 0 0 1 776 1953)">Margins</text>
  <text style="stroke:none;fill:black;font-family:-apple-system,&quot;SF Pro Display&quot;,&quot;SF Pro Text&quot;,Helvetica,sans-serif;" transform="matrix(1 0 0 1 776 1971)">Leading and trailing margins on the left and right side of each symbol</text>
  <text style="stroke:none;fill:black;font-family:-apple-system,&quot;SF Pro Display&quot;,&quot;SF Pro Text&quot;,Helvetica,sans-serif;" transform="matrix(1 0 0 1 776 1989)">can be adjusted by modifying the width of the blue rectangles.</text>
  <text style="stroke:none;fill:black;font-family:-apple-system,&quot;SF Pro Display&quot;,&quot;SF Pro Text&quot;,Helvetica,sans-serif;" transform="matrix(1 0 0 1 776 2007)">Modifications are automatically applied proportionally to all</text>
  <text style="stroke:none;fill:black;font-family:-apple-system,&quot;SF Pro Display&quot;,&quot;SF Pro Text&quot;,Helvetica,sans-serif;" transform="matrix(1 0 0 1 776 2025)">scales and weights.</text>
  <g id="" transform="matrix(1 0 0 1 1289 1933)">
   <path d="M 2.83203 3.61328 L 4.375 5.15625 C 5.22461 5.98633 6.19141 5.91797 7.05078 4.9707 L 17.2754 -6.16211 C 17.6953 -5.86914 18.0859 -5.87891 18.5645 -5.97656 L 19.6094 -6.19141 L 20.3027 -5.49805 L 20.2539 -4.98047 C 20.1855 -4.44336 20.3418 -4.0332 20.8398 -3.53516 L 21.6602 -2.72461 C 22.1582 -2.2168 22.8223 -2.1875 23.3008 -2.66602 L 26.5527 -5.91797 C 27.0312 -6.39648 27.002 -7.05078 26.5039 -7.55859 L 25.6836 -8.37891 C 25.1855 -8.87695 24.7656 -9.05273 24.2383 -8.97461 L 23.7109 -8.91602 L 23.0469 -9.58008 L 23.3398 -10.7227 C 23.4766 -11.2891 23.3301 -11.748 22.7148 -12.3535 L 20.3027 -14.7559 C 16.7578 -18.2812 12.2168 -18.1738 9.11133 -15.0391 C 8.68164 -14.6094 8.64258 -14.0234 8.91602 -13.5938 C 9.14062 -13.2227 9.61914 -12.998 10.2734 -13.1641 C 11.7871 -13.5449 13.3008 -13.4277 14.7852 -12.4219 L 14.1602 -10.8398 C 13.9258 -10.2539 13.9453 -9.77539 14.1797 -9.33594 L 3.01758 0.9375 C 2.08008 1.80664 1.97266 2.75391 2.83203 3.61328 Z M 10.6641 -14.6484 C 13.3301 -16.6406 16.6504 -16.3184 19.0527 -13.916 L 21.6797 -11.3086 C 21.9141 -11.0742 21.9434 -10.8887 21.875 -10.5957 L 21.5039 -9.0332 L 23.0762 -7.46094 L 24.0332 -7.54883 C 24.3164 -7.57812 24.4043 -7.55859 24.6387 -7.33398 L 25.2539 -6.70898 L 22.5098 -3.95508 L 21.8848 -4.58008 C 21.6602 -4.80469 21.6406 -4.89258 21.6699 -5.17578 L 21.7578 -6.14258 L 20.1953 -7.70508 L 18.5742 -7.39258 C 18.291 -7.33398 18.1445 -7.33398 17.9004 -7.57812 L 15.7324 -9.75586 C 15.498 -9.99023 15.4688 -10.127 15.5957 -10.4395 L 16.5527 -12.7246 C 14.9512 -14.2578 12.832 -15.1074 10.791 -14.4531 C 10.7031 -14.4238 10.6445 -14.4434 10.6152 -14.4824 C 10.5859 -14.5312 10.5859 -14.5801 10.6641 -14.6484 Z M 4.10156 2.91016 C 3.60352 2.41211 3.7793 2.10938 4.11133 1.80664 L 15.0781 -8.31055 L 16.2988 -7.08008 L 6.15234 3.84766 C 5.84961 4.17969 5.46875 4.27734 5.05859 3.87695 Z"/>
  </g>
  <text style="stroke:none;fill:black;font-family:-apple-system,&quot;SF Pro Display&quot;,&quot;SF Pro Text&quot;,Helvetica,sans-serif;font-weight:bold;" transform="matrix(1 0 0 1 1289 1953)">Exporting</text>
  <text style="stroke:none;fill:black;font-family:-apple-system,&quot;SF Pro Display&quot;,&quot;SF Pro Text&quot;,Helvetica,sans-serif;" transform="matrix(1 0 0 1 1289 1971)">Symbols should be outlined when exporting to ensure the</text>
  <text style="stroke:none;fill:black;font-family:-apple-system,&quot;SF Pro Display&quot;,&quot;SF Pro Text&quot;,Helvetica,sans-serif;" transform="matrix(1 0 0 1 1289 1989)">design is preserved when submitting to Xcode.</text>
  <text id="template-version" style="stroke:none;fill:black;font-family:-apple-system,&quot;SF Pro Display&quot;,&quot;SF Pro Text&quot;,Helvetica,sans-serif;text-anchor:end;" transform="matrix(1 0 0 1 3036 1933)">Template v.1.0</text>
  <text style="stroke:none;fill:black;font-family:-apple-system,&quot;SF Pro Display&quot;,&quot;SF Pro Text&quot;,Helvetica,sans-serif;text-anchor:end;" transform="matrix(1 0 0 1 3036 1951)">Generated from heart</text>
  <text style="stroke:none;fill:black;font-family:-apple-system,&quot;SF Pro Display&quot;,&quot;SF Pro Text&quot;,Helvetica,sans-serif;text-anchor:end;" transform="matrix(1 0 0 1 3036 1969)">Typeset at 100 points</text>
  <text style="stroke:none;fill:black;font-family:-apple-system,&quot;SF Pro Display&quot;,&quot;SF Pro Text&quot;,Helvetica,sans-serif;" transform="matrix(1 0 0 1 263 726)">Small</text>
  <text style="stroke:none;fill:black;font-family:-apple-system,&quot;SF Pro Display&quot;,&quot;SF Pro Text&quot;,Helvetica,sans-serif;" transform="matrix(1 0 0 1 263 1156)">Medium</text>
  <text style="stroke:none;fill:black;font-family:-apple-system,&quot;SF Pro Display&quot;,&quot;SF Pro Text&quot;,Helvetica,sans-serif;" transform="matrix(1 0 0 1 263 1586)">Large</text>
 </g>
 <g id="Guides">
  <g id="H-reference" style="fill:#27AAE1;stroke:none;" transform="matrix(1 0 0 1 339 696)">
   <path d="M 54.9316 0 L 57.666 0 L 30.5664 -70.459 L 28.0762 -70.459 L 0.976562 0 L 3.66211 0 L 12.9395 -24.4629 L 45.7031 -24.4629 Z M 29.1992 -67.0898 L 29.4434 -67.0898 L 44.8242 -26.709 L 13.8184 -26.709 Z"/>
  </g>
  <line id="Baseline-S" style="fill:none;stroke:#27AAE1;opacity:1;stroke-width:0.577;" x1="263" x2="3036" y1="696" y2="696"/>
  <line id="Capline-S" style="fill:none;stroke:#27AAE1;opacity:1;stroke-width:0.577;" x1="263" x2="3036" y1="625.541" y2="625.541"/>
  <g id="H-reference" style="fill:#27AAE1;stroke:none;" transform="matrix(1 0 0 1 339 1126)">
   <path d="M 54.9316 0 L 57.666 0 L 30.5664 -70.459 L 28.0762 -70.459 L 0.976562 0 L 3.66211 0 L 12.9395 -24.4629 L 45.7031 -24.4629 Z M 29.1992 -67.0898 L 29.4434 -67.0898 L 44.8242 -26.709 L 13.8184 -26.709 Z"/>
  </g>
  <line id="Baseline-M" style="fill:none;stroke:#27AAE1;opacity:1;stroke-width:0.577;" x1="263" x2="3036" y1="1126" y2="1126"/>
  <line id="Capline-M" style="fill:none;stroke:#27AAE1;opacity:1;stroke-width:0.577;" x1="263" x2="3036" y1="1055.54" y2="1055.54"/>
  <g id="H-reference" style="fill:#27AAE1;stroke:none;" transform="matrix(1 0 0 1 339 1556)">
   <path d="M 54.9316 0 L 57.666 0 L 30.5664 -70.459 L 28.0762 -70.459 L 0.976562 0 L 3.66211 0 L 12.9395 -24.4629 L 45.7031 -24.4629 Z M 29.1992 -67.0898 L 29.4434 -67.0898 L 44.8242 -26.709 L 13.8184 -26.709 Z"/>
  </g>
  <line id="Baseline-L" style="fill:none;stroke:#27AAE1;opacity:1;stroke-width:0.577;" x1="263" x2="3036" y1="1556" y2="1556"/>
  <line id="Capline-L" style="fill:none;stroke:#27AAE1;opacity:1;stroke-width:0.577;" x1="263" x2="3036" y1="1485.54" y2="1485.54"/>
  <rect height="119.336" id="left-margin" style="fill:#00AEEF;stroke:none;opacity:0.4;" width="8.74023" x="1392.62" y="1030.79"/>
  <rect height="119.336" id="right-margin" style="fill:#00AEEF;stroke:none;opacity:0.4;" width="8.74023" x="1498.33" y="1030.79"/>
 </g>
 <g id="Symbols">
  <g id="Black-L" transform="matrix(1 0 0 1 2854.64 1556)">
   <path d="M 11.2793 -52.5879 C 11.2793 -25.293 34.082 2.00195 68.4082 24.707 C 72.2168 27.2461 76.123 29.5898 78.7598 29.5898 C 81.3965 29.5898 85.3027 27.2461 89.1113 24.707 C 123.438 2.00195 146.289 -25.293 146.289 -52.5879 C 146.289 -78.9062 127.832 -96.1426 106.445 -96.1426 C 93.4082 -96.1426 84.2285 -90.7715 78.7598 -83.252 C 73.291 -90.7715 64.1113 -96.1426 51.0742 -96.1426 C 29.6875 -96.1426 11.2793 -78.9062 11.2793 -52.5879 Z M 33.0078 -52.832 C 33.0078 -66.1133 42.2852 -75.3418 54.4434 -75.3418 C 64.3066 -75.3418 69.2871 -70.0195 72.998 -65.0879 C 74.8535 -62.4512 76.5625 -61.1816 78.7598 -61.1816 C 80.957 -61.1816 82.4707 -62.4512 84.4727 -65.0879 C 88.4277 -70.0195 93.2617 -75.3418 103.076 -75.3418 C 115.234 -75.3418 124.512 -66.1133 124.512 -52.832 C 124.512 -34.4238 106.445 -11.9141 79.6387 5.95703 C 79.248 6.20117 79.0039 6.34766 78.7598 6.34766 C 78.5156 6.34766 78.2715 6.20117 77.8809 5.95703 C 51.0742 -11.9141 33.0078 -34.4238 33.0078 -52.832 Z"/>
  </g>
  <g id="Heavy-L" transform="matrix(1 0 0 1 2559.27 1556)">
   <path d="M 11.2793 -52.7344 C 11.2793 -25.6348 34.082 1.36719 68.5547 24.0234 C 71.7285 26.1719 75.1465 28.125 77.4414 28.125 C 79.6875 28.125 83.1055 26.1719 86.2793 24.0234 C 120.801 1.36719 143.604 -25.6348 143.604 -52.7344 C 143.604 -77.9297 125.977 -94.8242 104.883 -94.8242 C 92.1875 -94.8242 82.9102 -89.3555 77.4414 -81.4941 C 71.9727 -89.3066 62.6465 -94.8242 49.9512 -94.8242 C 28.8574 -94.8242 11.2793 -77.9297 11.2793 -52.7344 Z M 29.9316 -52.8809 C 29.9316 -67.0898 39.6484 -76.8555 52.5391 -76.8555 C 62.793 -76.8555 68.3105 -71.0449 72.1191 -65.6738 C 73.9258 -63.1348 75.3906 -62.0117 77.4414 -62.0117 C 79.4434 -62.0117 80.8105 -63.1836 82.666 -65.6738 C 86.7676 -71.0449 92.0898 -76.8555 102.344 -76.8555 C 115.186 -76.8555 124.902 -67.0898 124.902 -52.8809 C 124.902 -33.252 105.273 -10.1562 78.3691 7.76367 C 77.9297 8.05664 77.6855 8.20312 77.4414 8.20312 C 77.1973 8.20312 76.9043 8.05664 76.4648 7.76367 C 49.5605 -10.1562 29.9316 -33.252 29.9316 -52.8809 Z"/>
  </g>
  <g id="Bold-L" transform="matrix(1 0 0 1 2264.05 1556)">
   <path d="M 11.2793 -52.8809 C 11.2793 -25.9766 34.0332 0.683594 68.7012 23.291 C 71.1914 24.9512 74.0234 26.5137 75.9277 26.5137 C 77.832 26.5137 80.6641 24.9512 83.1543 23.291 C 117.773 0.683594 140.576 -25.9766 140.576 -52.8809 C 140.576 -76.9043 123.877 -93.3105 103.174 -93.3105 C 90.8691 -93.3105 81.4453 -87.7441 75.9277 -79.541 C 70.459 -87.6953 60.9863 -93.3105 48.6816 -93.3105 C 27.9785 -93.3105 11.2793 -76.9043 11.2793 -52.8809 Z M 26.4648 -52.9785 C 26.4648 -68.1641 36.6699 -78.5645 50.3418 -78.5645 C 61.1328 -78.5645 67.1875 -72.2656 71.1426 -66.3574 C 72.8027 -63.916 74.1211 -62.9395 75.9277 -62.9395 C 77.6855 -62.9395 78.9062 -63.916 80.6641 -66.3574 C 84.8633 -72.2168 90.7227 -78.5645 101.514 -78.5645 C 115.137 -78.5645 125.391 -68.1641 125.391 -52.9785 C 125.391 -31.9824 104.004 -8.20312 76.9531 9.81445 C 76.4648 10.1562 76.1719 10.3516 75.9277 10.3516 C 75.6836 10.3516 75.3418 10.1562 74.9023 9.81445 C 47.8516 -8.20312 26.4648 -31.9824 26.4648 -52.9785 Z"/>
  </g>
  <g id="Semibold-L" transform="matrix(1 0 0 1 1968.39 1556)">
   <path d="M 11.2793 -52.9785 C 11.2793 -26.2207 34.0332 0.195312 68.7988 22.8027 C 70.8496 24.1211 73.2422 25.3906 74.9023 25.3906 C 76.5625 25.3906 78.9551 24.1211 81.0059 22.8027 C 115.723 0.195312 138.525 -26.2207 138.525 -52.9785 C 138.525 -76.1719 122.412 -92.2363 101.953 -92.2363 C 89.9414 -92.2363 80.4199 -86.6211 74.9023 -78.1738 C 69.4336 -86.5723 59.8145 -92.2363 47.8516 -92.2363 C 27.3438 -92.2363 11.2793 -76.1719 11.2793 -52.9785 Z M 24.0723 -53.0273 C 24.0723 -68.8965 34.668 -79.7363 48.8281 -79.7363 C 60.0098 -79.7363 66.4062 -73.0469 70.459 -66.7969 C 72.0703 -64.4043 73.291 -63.5742 74.9023 -63.5742 C 76.5137 -63.5742 77.5879 -64.4531 79.2969 -66.7969 C 83.5938 -72.998 89.8438 -79.7363 100.928 -79.7363 C 115.137 -79.7363 125.684 -68.8965 125.684 -53.0273 C 125.684 -31.1035 103.125 -6.83594 75.9766 11.2305 C 75.4883 11.5723 75.1465 11.8164 74.9023 11.8164 C 74.6582 11.8164 74.3164 11.5723 73.8281 11.2305 C 46.6797 -6.83594 24.0723 -31.1035 24.0723 -53.0273 Z"/>
  </g>
  <g id="Medium-L" transform="matrix(1 0 0 1 1672.46 1556)">
   <path d="M 11.2793 -53.0273 C 11.2793 -26.3672 34.0332 -0.146484 68.8477 22.4121 C 70.5566 23.4863 72.6562 24.5117 74.1211 24.5117 C 75.5371 24.5117 77.6855 23.4863 79.3457 22.4121 C 114.16 -0.146484 136.963 -26.3672 136.963 -53.0273 C 136.963 -75.6348 121.338 -91.4551 101.025 -91.4551 C 89.2578 -91.4551 79.6387 -85.791 74.1211 -77.1484 C 68.6523 -85.7422 58.9844 -91.4551 47.168 -91.4551 C 26.8555 -91.4551 11.2793 -75.6348 11.2793 -53.0273 Z M 22.2656 -53.0762 C 22.2656 -69.4824 33.1055 -80.6152 47.7051 -80.6152 C 59.1309 -80.6152 65.8203 -73.6816 69.9707 -67.1387 C 71.5332 -64.8438 72.6074 -64.0625 74.1211 -64.0625 C 75.5859 -64.0625 76.6113 -64.8926 78.2227 -67.1387 C 82.5684 -73.584 89.1113 -80.6152 100.488 -80.6152 C 115.088 -80.6152 125.928 -69.4824 125.928 -53.0762 C 125.928 -30.4199 102.441 -5.81055 75.2441 12.3047 C 74.707 12.6465 74.3652 12.8906 74.1211 12.8906 C 73.877 12.8906 73.4863 12.6465 72.998 12.3047 C 45.752 -5.81055 22.2656 -30.4199 22.2656 -53.0762 Z"/>
  </g>
  <g id="Regular-L" transform="matrix(1 0 0 1 1376.75 1556)">
   <path d="M 11.2793 -53.125 C 11.2793 -26.6113 34.0332 -0.634766 68.9453 21.875 C 70.166 22.6562 71.875 23.4375 73.0957 23.4375 C 74.2676 23.4375 75.9766 22.6562 77.1973 21.875 C 112.158 -0.634766 134.912 -26.6113 134.912 -53.125 C 134.912 -74.9023 119.922 -90.4297 99.8535 -90.4297 C 88.3301 -90.4297 78.6133 -84.668 73.0957 -75.8301 C 67.627 -84.6191 57.8125 -90.4297 46.3379 -90.4297 C 26.2695 -90.4297 11.2793 -74.9023 11.2793 -53.125 Z M 19.9219 -53.125 C 19.9219 -70.2148 31.1035 -81.7871 46.2402 -81.7871 C 58.0078 -81.7871 65.0391 -74.4629 69.2871 -67.5781 C 70.8008 -65.332 71.7285 -64.6484 73.0957 -64.6484 C 74.4141 -64.6484 75.293 -65.3809 76.8555 -67.5781 C 81.2988 -74.3652 88.2324 -81.7871 99.9512 -81.7871 C 115.088 -81.7871 126.27 -70.2148 126.27 -53.125 C 126.27 -29.541 101.562 -4.44336 74.2676 13.7207 C 73.7305 14.0625 73.3398 14.3555 73.0957 14.3555 C 72.8516 14.3555 72.4609 14.0625 71.9238 13.7207 C 44.6289 -4.44336 19.9219 -29.541 19.9219 -53.125 Z"/>
  </g>
  <g id="Light-L" transform="matrix(1 0 0 1 1081.06 1556)">
   <path d="M 11.2793 -53.125 C 11.2793 -27.0996 34.4238 -1.66016 68.5547 20.6543 C 69.5801 21.2891 70.9961 21.9238 72.0703 21.9238 C 73.0957 21.9238 74.5605 21.2891 75.5859 20.6543 C 109.717 -1.66016 132.861 -27.0996 132.861 -53.125 C 132.861 -74.2676 118.262 -89.4043 98.7305 -89.4043 C 87.4512 -89.4043 77.3438 -83.3984 72.0703 -74.0723 C 66.8457 -83.3496 56.6895 -89.4043 45.4102 -89.4043 C 25.8301 -89.4043 11.2793 -74.2676 11.2793 -53.125 Z M 17.8711 -53.125 C 17.8711 -70.7031 29.541 -82.7637 45.3613 -82.7637 C 56.9824 -82.7637 64.502 -75.5859 68.9453 -67.9199 C 70.1172 -66.0645 70.9473 -65.4785 72.0703 -65.4785 C 73.1934 -65.4785 73.9746 -66.1133 75.1953 -67.9199 C 79.7852 -75.5371 87.1582 -82.7637 98.7793 -82.7637 C 114.6 -82.7637 126.27 -70.7031 126.27 -53.125 C 126.27 -29.3945 101.66 -4.54102 73.0469 14.502 C 72.6562 14.7949 72.3145 14.9902 72.0703 14.9902 C 71.8262 14.9902 71.4844 14.7949 71.0449 14.502 C 42.4805 -4.54102 17.8711 -29.3945 17.8711 -53.125 Z"/>
  </g>
  <g id="Thin-L" transform="matrix(1 0 0 1 785.695 1556)">
   <path d="M 11.2793 -53.125 C 11.2793 -27.7832 34.9121 -2.97852 68.0176 18.9941 C 68.7988 19.4824 69.873 19.9219 70.7031 19.9219 C 71.582 19.9219 72.6562 19.4824 73.4375 18.9941 C 106.543 -2.97852 130.176 -27.7832 130.176 -53.125 C 130.176 -73.4375 116.113 -88.0371 97.2168 -88.0371 C 86.2793 -88.0371 75.6348 -81.7383 70.7031 -71.8262 C 65.8203 -81.6895 55.1758 -88.0371 44.2383 -88.0371 C 25.293 -88.0371 11.2793 -73.4375 11.2793 -53.125 Z M 15.1855 -53.125 C 15.1855 -71.3867 27.4902 -84.1309 44.1895 -84.1309 C 55.6641 -84.1309 63.7207 -77.0996 68.457 -68.3594 C 69.2383 -67.041 69.8242 -66.5039 70.7031 -66.5039 C 71.582 -66.5039 72.2168 -67.041 72.9492 -68.3594 C 77.7344 -77.0996 85.791 -84.1309 97.2168 -84.1309 C 113.965 -84.1309 126.27 -71.3867 126.27 -53.125 C 126.27 -29.1992 101.758 -4.6875 71.4844 15.5273 C 71.2402 15.7227 70.9473 15.8691 70.7031 15.8691 C 70.459 15.8691 70.2148 15.7227 69.9219 15.5273 C 39.6484 -4.6875 15.1855 -29.1992 15.1855 -53.125 Z"/>
  </g>
  <g id="Ultralight-L" transform="matrix(1 0 0 1 489.667 1556)">
   <path d="M 11.2793 -53.125 C 11.2793 -28.125 35.2051 -3.66211 67.7246 18.1152 C 68.4082 18.5547 69.2871 18.9453 70.0195 18.9453 C 70.8008 18.9453 71.6797 18.5547 72.3145 18.1152 C 104.883 -3.66211 128.809 -28.125 128.809 -53.125 C 128.809 -72.998 115.039 -87.3535 96.4355 -87.3535 C 85.6934 -87.3535 74.7559 -80.8594 70.0195 -70.6543 C 65.2832 -80.8594 54.3945 -87.3535 43.6035 -87.3535 C 25.0488 -87.3535 11.2793 -72.998 11.2793 -53.125 Z M 13.8184 -53.125 C 13.8184 -71.6797 26.416 -84.8145 43.6035 -84.8145 C 54.9805 -84.8145 63.3301 -77.8809 68.2617 -68.6035 C 68.7988 -67.5293 69.2871 -67.041 70.0195 -67.041 C 70.752 -67.041 71.2891 -67.5293 71.8262 -68.6035 C 76.709 -77.8809 85.0586 -84.8145 96.4355 -84.8145 C 113.623 -84.8145 126.27 -71.6797 126.27 -53.125 C 126.27 -29.1016 101.855 -4.73633 70.7031 16.0645 C 70.5078 16.2109 70.2637 16.3574 70.0195 16.3574 C 69.7754 16.3574 69.5801 16.2109 69.3848 16.0645 C 38.2324 -4.73633 13.8184 -29.1016 13.8184 -53.125 Z"/>
  </g>
  <g id="Black-M" transform="matrix(1 0 0 1 2871.1 1126)">
   <path d="M 8.74023 -48.5352 C 8.74023 -27.3926 26.6113 -6.05469 52.6367 11.4258 C 56.2988 13.916 59.9121 16.2109 62.3047 16.2109 C 64.6973 16.2109 68.3105 13.916 71.9727 11.4258 C 97.998 -6.05469 115.869 -27.3926 115.869 -48.5352 C 115.869 -69.9707 100.732 -83.7402 84.0332 -83.7402 C 73.5352 -83.7402 66.4062 -79.541 62.3047 -73.877 C 58.2031 -79.541 51.0742 -83.7402 40.5762 -83.7402 C 23.877 -83.7402 8.74023 -69.9707 8.74023 -48.5352 Z M 28.6621 -48.7793 C 28.6621 -58.1055 35.498 -64.7949 44.3848 -64.7949 C 51.2695 -64.7949 54.7363 -61.377 57.5195 -57.7637 C 58.9844 -55.7617 60.4004 -54.6387 62.3047 -54.6387 C 64.209 -54.6387 65.5273 -55.7617 66.9922 -57.7637 C 69.9707 -61.4258 73.3398 -64.7949 80.2246 -64.7949 C 89.1113 -64.7949 95.9473 -58.1055 95.9473 -48.7793 C 95.9473 -36.084 84.082 -19.5801 62.793 -5.37109 C 62.5977 -5.27344 62.5 -5.22461 62.3047 -5.22461 C 62.1094 -5.22461 62.0117 -5.27344 61.8164 -5.37109 C 40.5273 -19.5801 28.6621 -36.084 28.6621 -48.7793 Z"/>
  </g>
  <g id="Heavy-M" transform="matrix(1 0 0 1 2575.58 1126)">
   <path d="M 8.74023 -48.6816 C 8.74023 -27.5879 26.5137 -6.49414 52.8809 11.0352 C 55.957 13.0859 59.0332 14.9902 61.084 14.9902 C 63.1836 14.9902 66.2598 13.0859 69.3359 11.0352 C 95.7031 -6.49414 113.477 -27.5879 113.477 -48.6816 C 113.477 -69.1406 99.1211 -82.5195 82.6172 -82.5195 C 72.4609 -82.5195 65.2832 -78.3203 61.084 -72.4121 C 56.9336 -78.3203 49.7559 -82.5195 39.5996 -82.5195 C 23.0957 -82.5195 8.74023 -69.1406 8.74023 -48.6816 Z M 25.8301 -48.877 C 25.8301 -59.0332 33.0078 -66.2109 42.4805 -66.2109 C 49.9023 -66.2109 53.8086 -62.207 56.6895 -58.3496 C 58.1055 -56.3477 59.375 -55.3223 61.084 -55.3223 C 62.793 -55.3223 64.0137 -56.3477 65.4785 -58.3496 C 68.5547 -62.2559 72.3145 -66.2109 79.7363 -66.2109 C 89.209 -66.2109 96.3867 -59.0332 96.3867 -48.877 C 96.3867 -34.8633 82.8125 -17.627 61.7188 -3.56445 C 61.4746 -3.41797 61.2793 -3.32031 61.084 -3.32031 C 60.9375 -3.32031 60.7422 -3.41797 60.498 -3.56445 C 39.4043 -17.627 25.8301 -34.8633 25.8301 -48.877 Z"/>
  </g>
  <g id="Bold-M" transform="matrix(1 0 0 1 2280.21 1126)">
   <path d="M 8.74023 -48.8281 C 8.74023 -27.832 26.3672 -6.93359 53.1738 10.5957 C 55.5176 12.1582 58.0566 13.623 59.7656 13.623 C 61.4746 13.623 64.0137 12.1582 66.3574 10.5957 C 93.1152 -6.93359 110.791 -27.832 110.791 -48.8281 C 110.791 -68.1641 97.3145 -81.1523 81.0059 -81.1523 C 71.2402 -81.1523 64.0137 -76.9043 59.7656 -70.8008 C 55.5176 -76.9043 48.291 -81.1523 38.5254 -81.1523 C 22.2168 -81.1523 8.74023 -68.1641 8.74023 -48.8281 Z M 22.6074 -48.9258 C 22.6074 -60.0586 30.2246 -67.7734 40.332 -67.7734 C 48.3887 -67.7734 52.7344 -63.1836 55.7129 -58.9355 C 57.0801 -56.9824 58.252 -56.1035 59.7656 -56.1035 C 61.2793 -56.1035 62.3047 -56.9824 63.7695 -58.9355 C 66.9434 -63.1836 71.1426 -67.7734 79.1992 -67.7734 C 89.2578 -67.7734 96.875 -60.0586 96.875 -48.9258 C 96.875 -33.4961 81.3477 -15.4297 60.498 -1.5625 C 60.1562 -1.36719 59.9609 -1.2207 59.7656 -1.2207 C 59.5703 -1.2207 59.3262 -1.36719 59.0332 -1.5625 C 38.1348 -15.4297 22.6074 -33.4961 22.6074 -48.9258 Z"/>
  </g>
  <g id="Semibold-M" transform="matrix(1 0 0 1 1984.43 1126)">
   <path d="M 8.74023 -48.9258 C 8.74023 -27.9785 26.3184 -7.27539 53.3203 10.3027 C 55.2246 11.5234 57.373 12.6953 58.8379 12.6953 C 60.3027 12.6953 62.4512 11.5234 64.3066 10.3027 C 91.3574 -7.27539 108.936 -27.9785 108.936 -48.9258 C 108.936 -67.4805 96.0449 -80.2246 79.9316 -80.2246 C 70.4102 -80.2246 63.1348 -75.9766 58.8379 -69.6289 C 54.541 -75.9277 47.2656 -80.2246 37.7441 -80.2246 C 21.6309 -80.2246 8.74023 -67.4805 8.74023 -48.9258 Z M 20.4102 -48.9746 C 20.4102 -60.791 28.3203 -68.8477 38.8672 -68.8477 C 47.3633 -68.8477 52.002 -63.8672 55.0781 -59.375 C 56.4453 -57.4219 57.4219 -56.6406 58.8379 -56.6406 C 60.2051 -56.6406 61.1328 -57.4219 62.5977 -59.375 C 65.8203 -63.8184 70.3613 -68.8477 78.8086 -68.8477 C 89.3555 -68.8477 97.2168 -60.791 97.2168 -48.9746 C 97.2168 -32.5684 80.3711 -13.9648 59.668 -0.146484 C 59.2773 0.0976562 59.0332 0.244141 58.8379 0.244141 C 58.6426 0.244141 58.3984 0.0976562 58.0078 -0.146484 C 37.3047 -13.9648 20.4102 -32.5684 20.4102 -48.9746 Z"/>
  </g>
  <g id="Medium-M" transform="matrix(1 0 0 1 1688.43 1126)">
   <path d="M 8.74023 -48.9746 C 8.74023 -28.125 26.2207 -7.51953 53.4668 10.0586 C 55.0293 11.0352 56.8848 12.0117 58.1543 12.0117 C 59.375 12.0117 61.2793 11.0352 62.793 10.0586 C 90.0391 -7.51953 107.52 -28.125 107.52 -48.9746 C 107.52 -66.9922 95.0684 -79.4922 79.1016 -79.4922 C 69.7754 -79.4922 62.5 -75.2441 58.1543 -68.7988 C 53.8086 -75.1953 46.4844 -79.4922 37.1582 -79.4922 C 21.1914 -79.4922 8.74023 -66.9922 8.74023 -48.9746 Z M 18.75 -49.0234 C 18.75 -61.3281 26.8555 -69.6777 37.793 -69.6777 C 46.5332 -69.6777 51.4648 -64.3555 54.541 -59.7168 C 55.9082 -57.7148 56.8359 -57.0801 58.1543 -57.0801 C 59.4238 -57.0801 60.2539 -57.7637 61.7188 -59.7168 C 64.9902 -64.2578 69.7754 -69.6777 78.5156 -69.6777 C 89.4043 -69.6777 97.5098 -61.3281 97.5098 -49.0234 C 97.5098 -31.8359 79.6387 -12.793 59.0332 0.878906 C 58.5938 1.17188 58.3008 1.36719 58.1543 1.36719 C 57.959 1.36719 57.666 1.17188 57.2266 0.878906 C 36.6211 -12.793 18.75 -31.8359 18.75 -49.0234 Z"/>
  </g>
  <g id="Regular-M" transform="matrix(1 0 0 1 1392.62 1126)">
   <path d="M 8.74023 -49.0723 C 8.74023 -28.2715 26.1719 -7.8125 53.6621 9.76562 C 54.7363 10.4004 56.2012 11.084 57.2266 11.084 C 58.252 11.084 59.7168 10.4004 60.7422 9.76562 C 88.2812 -7.8125 105.713 -28.2715 105.713 -49.0723 C 105.713 -66.3574 93.8477 -78.5645 78.0273 -78.5645 C 68.9453 -78.5645 61.6211 -74.2676 57.2266 -67.6758 C 52.832 -74.2188 45.459 -78.5645 36.4258 -78.5645 C 20.6055 -78.5645 8.74023 -66.3574 8.74023 -49.0723 Z M 16.6016 -49.0723 C 16.6016 -62.0605 25 -70.7031 36.3281 -70.7031 C 45.5078 -70.7031 50.7324 -64.9902 53.9062 -60.1074 C 55.2246 -58.1543 56.0547 -57.6172 57.2266 -57.6172 C 58.3984 -57.6172 59.1309 -58.2031 60.5469 -60.1074 C 63.8672 -64.8926 68.9941 -70.7031 78.125 -70.7031 C 89.4531 -70.7031 97.8516 -62.0605 97.8516 -49.0723 C 97.8516 -30.9082 78.6621 -11.3281 58.2031 2.24609 C 57.7148 2.58789 57.4219 2.83203 57.2266 2.83203 C 57.0312 2.83203 56.6895 2.58789 56.2012 2.24609 C 35.791 -11.3281 16.6016 -30.9082 16.6016 -49.0723 Z"/>
  </g>
  <g id="Light-M" transform="matrix(1 0 0 1 1096.83 1126)">
   <path d="M 8.74023 -49.0723 C 8.74023 -28.7109 26.5137 -8.74023 53.3203 8.64258 C 54.1992 9.17969 55.4199 9.7168 56.2988 9.7168 C 57.1777 9.7168 58.3984 9.17969 59.3262 8.64258 C 86.1328 -8.74023 103.906 -28.7109 103.906 -49.0723 C 103.906 -65.7715 92.3828 -77.6855 77.002 -77.6855 C 68.1641 -77.6855 60.498 -73.1445 56.2988 -66.1133 C 52.1484 -73.0957 44.4336 -77.6855 35.5957 -77.6855 C 20.2148 -77.6855 8.74023 -65.7715 8.74023 -49.0723 Z M 14.7461 -49.0723 C 14.7461 -62.5 23.584 -71.6309 35.5469 -71.6309 C 44.6289 -71.6309 50.2441 -66.0156 53.5645 -60.4004 C 54.6387 -58.7891 55.3223 -58.3008 56.2988 -58.3008 C 57.2754 -58.3008 57.9102 -58.8379 59.0332 -60.4004 C 62.5 -65.9668 68.0176 -71.6309 77.0508 -71.6309 C 89.0137 -71.6309 97.8516 -62.5 97.8516 -49.0723 C 97.8516 -30.7617 78.7598 -11.4258 57.1777 2.97852 C 56.7871 3.22266 56.4941 3.41797 56.2988 3.41797 C 56.1035 3.41797 55.8594 3.22266 55.4688 2.97852 C 33.8867 -11.4258 14.7461 -30.7617 14.7461 -49.0723 Z"/>
  </g>
  <g id="Thin-M" transform="matrix(1 0 0 1 801.32 1126)">
   <path d="M 8.74023 -49.0723 C 8.74023 -29.2969 26.9531 -9.96094 52.832 7.12891 C 53.5156 7.56836 54.3945 7.95898 55.0781 7.95898 C 55.8105 7.95898 56.6895 7.56836 57.373 7.12891 C 83.252 -9.96094 101.465 -29.2969 101.465 -49.0723 C 101.465 -65.0391 90.4785 -76.4648 75.6836 -76.4648 C 67.1387 -76.4648 58.9844 -71.6309 55.0781 -64.0625 C 51.2207 -71.6309 43.0664 -76.4648 34.5215 -76.4648 C 19.7266 -76.4648 8.74023 -65.0391 8.74023 -49.0723 Z M 12.3535 -49.0723 C 12.3535 -63.0859 21.7285 -72.8516 34.5215 -72.8516 C 43.457 -72.8516 49.5605 -67.334 53.1738 -60.791 C 53.8574 -59.668 54.3457 -59.2285 55.0781 -59.2285 C 55.8594 -59.2285 56.3477 -59.668 57.0312 -60.791 C 60.6934 -67.334 66.7969 -72.8516 75.6836 -72.8516 C 88.4766 -72.8516 97.8516 -63.0859 97.8516 -49.0723 C 97.8516 -30.6152 78.8574 -11.5234 55.7617 3.90625 C 55.5176 4.05273 55.2734 4.19922 55.0781 4.19922 C 54.9316 4.19922 54.6875 4.05273 54.4434 3.90625 C 31.3477 -11.5234 12.3535 -30.6152 12.3535 -49.0723 Z"/>
  </g>
  <g id="Ultralight-M" transform="matrix(1 0 0 1 505.219 1126)">
   <path d="M 8.74023 -49.0723 C 8.74023 -29.5898 27.1973 -10.5469 52.5879 6.39648 C 53.125 6.73828 53.8574 7.03125 54.4922 7.03125 C 55.0781 7.03125 55.8105 6.73828 56.3965 6.39648 C 81.7871 -10.5469 100.244 -29.5898 100.244 -49.0723 C 100.244 -64.6484 89.502 -75.8301 75 -75.8301 C 66.6016 -75.8301 58.2031 -70.8496 54.4922 -63.0371 C 50.7324 -70.8496 42.3828 -75.8301 33.9844 -75.8301 C 19.4824 -75.8301 8.74023 -64.6484 8.74023 -49.0723 Z M 11.1328 -49.0723 C 11.1328 -63.3789 20.8008 -73.4375 33.9844 -73.4375 C 42.8223 -73.4375 49.2188 -68.0176 52.9785 -61.0352 C 53.418 -60.1074 53.8574 -59.7168 54.4922 -59.7168 C 55.0781 -59.7168 55.5176 -60.1074 56.0059 -61.0352 C 59.7656 -68.0176 66.1133 -73.4375 75 -73.4375 C 88.1836 -73.4375 97.8516 -63.3789 97.8516 -49.0723 C 97.8516 -30.5176 78.9062 -11.5723 55.0293 4.3457 C 54.834 4.49219 54.6875 4.58984 54.4922 4.58984 C 54.2969 4.58984 54.1016 4.49219 53.9551 4.3457 C 30.0781 -11.5723 11.1328 -30.5176 11.1328 -49.0723 Z"/>
  </g>
  <g id="Black-S" transform="matrix(1 0 0 1 2884.67 696)">
   <path d="M 6.83594 -45.6543 C 6.83594 -29.1016 20.8496 -12.4023 41.2598 1.31836 C 44.0918 3.22266 46.875 4.98047 48.7305 4.98047 C 50.5859 4.98047 53.3691 3.22266 56.2012 1.31836 C 76.6113 -12.4023 90.625 -29.1016 90.625 -45.6543 C 90.625 -62.4023 78.8086 -73.1445 65.7227 -73.1445 C 57.5195 -73.1445 51.9531 -69.873 48.7305 -65.4297 C 45.5078 -69.873 39.9414 -73.1445 31.7383 -73.1445 C 18.6523 -73.1445 6.83594 -62.4023 6.83594 -45.6543 Z M 22.2656 -45.8496 C 22.2656 -53.2227 27.6367 -58.4961 34.6191 -58.4961 C 40.0879 -58.4961 42.8223 -55.7617 45.0195 -52.9297 C 46.1426 -51.3672 47.2656 -50.4883 48.7305 -50.4883 C 50.1953 -50.4883 51.2207 -51.3672 52.3926 -52.9297 C 54.7363 -55.8105 57.373 -58.4961 62.8418 -58.4961 C 69.8242 -58.4961 75.1953 -53.2227 75.1953 -45.8496 C 75.1953 -35.791 65.7715 -22.8027 49.1211 -11.7188 C 48.9746 -11.6211 48.877 -11.5723 48.7305 -11.5723 C 48.584 -11.5723 48.4863 -11.6211 48.3398 -11.7188 C 31.6895 -22.8027 22.2656 -35.791 22.2656 -45.8496 Z"/>
  </g>
  <g id="Heavy-S" transform="matrix(1 0 0 1 2588.76 696)">
   <path d="M 6.83594 -45.752 C 6.83594 -29.1992 20.7031 -12.5977 41.5039 1.12305 C 43.8477 2.73438 46.2891 4.19922 47.9004 4.19922 C 49.5117 4.19922 51.9531 2.73438 54.3457 1.12305 C 75.0977 -12.5977 89.0137 -29.1992 89.0137 -45.752 C 89.0137 -61.8164 77.7344 -72.3145 64.7461 -72.3145 C 56.7871 -72.3145 51.2207 -69.043 47.9004 -64.4531 C 44.6289 -69.043 39.0625 -72.3145 31.0547 -72.3145 C 18.1152 -72.3145 6.83594 -61.8164 6.83594 -45.752 Z M 20.2637 -45.8984 C 20.2637 -53.9062 25.8789 -59.4727 33.252 -59.4727 C 39.1602 -59.4727 42.1387 -56.2988 44.3848 -53.3203 C 45.5566 -51.709 46.582 -50.9277 47.9004 -50.9277 C 49.2676 -50.9277 50.1953 -51.7578 51.416 -53.3203 C 53.8086 -56.2988 56.6895 -59.4727 62.5488 -59.4727 C 69.9219 -59.4727 75.5371 -53.9062 75.5371 -45.8984 C 75.5371 -34.8633 64.7949 -21.2891 48.4375 -10.4004 C 48.1934 -10.2539 48.0469 -10.2051 47.9004 -10.2051 C 47.7539 -10.2051 47.6074 -10.2539 47.4121 -10.4004 C 31.0547 -21.2891 20.2637 -34.8633 20.2637 -45.8984 Z"/>
  </g>
  <g id="Bold-S" transform="matrix(1 0 0 1 2292.98 696)">
   <path d="M 6.83594 -45.8984 C 6.83594 -29.3457 20.6055 -12.8418 41.748 0.927734 C 43.6035 2.19727 45.6543 3.32031 47.0215 3.32031 C 48.3398 3.32031 50.3906 2.19727 52.2461 0.927734 C 73.4375 -12.8418 87.1582 -29.3457 87.1582 -45.8984 C 87.1582 -61.1328 76.5137 -71.3867 63.6719 -71.3867 C 55.957 -71.3867 50.3906 -68.1152 47.0215 -63.4277 C 43.6035 -68.1152 38.0371 -71.3867 30.3223 -71.3867 C 17.4805 -71.3867 6.83594 -61.1328 6.83594 -45.8984 Z M 18.0664 -45.9961 C 18.0664 -54.6387 23.9258 -60.5469 31.7383 -60.5469 C 38.0859 -60.5469 41.4062 -56.9336 43.7012 -53.7598 C 44.873 -52.1484 45.752 -51.4648 47.0215 -51.4648 C 48.2422 -51.4648 49.0723 -52.1484 50.293 -53.7598 C 52.7344 -56.8848 55.957 -60.5469 62.2559 -60.5469 C 70.0684 -60.5469 75.9277 -54.6387 75.9277 -45.9961 C 75.9277 -33.8379 63.6719 -19.6289 47.6074 -8.93555 C 47.3145 -8.78906 47.168 -8.64258 47.0215 -8.64258 C 46.875 -8.64258 46.6797 -8.78906 46.3867 -8.93555 C 30.3223 -19.6289 18.0664 -33.8379 18.0664 -45.9961 Z"/>
  </g>
  <g id="Semibold-S" transform="matrix(1 0 0 1 1996.9 696)">
   <path d="M 6.83594 -45.9473 C 6.83594 -29.3945 20.5078 -13.0371 41.9434 0.78125 C 43.457 1.80664 45.2148 2.73438 46.3867 2.73438 C 47.5586 2.73438 49.3164 1.80664 50.8301 0.78125 C 72.2656 -13.0371 85.8887 -29.3945 85.8887 -45.9473 C 85.8887 -60.6934 75.6836 -70.752 62.9395 -70.752 C 55.4199 -70.752 49.8535 -67.4805 46.3867 -62.6465 C 42.9199 -67.4805 37.3535 -70.752 29.834 -70.752 C 17.041 -70.752 6.83594 -60.6934 6.83594 -45.9473 Z M 16.5527 -45.9961 C 16.5527 -55.127 22.6074 -61.2793 30.6641 -61.2793 C 37.3535 -61.2793 40.918 -57.3242 43.2129 -54.0527 C 44.3848 -52.3926 45.2148 -51.8066 46.3867 -51.8066 C 47.5098 -51.8066 48.2422 -52.4414 49.5117 -54.0527 C 52.002 -57.2754 55.4199 -61.2793 62.0605 -61.2793 C 70.166 -61.2793 76.1719 -55.127 76.1719 -45.9961 C 76.1719 -33.1543 62.9395 -18.5059 47.0703 -7.95898 C 46.7285 -7.71484 46.5332 -7.56836 46.3867 -7.56836 C 46.2402 -7.56836 45.9961 -7.71484 45.6543 -7.95898 C 29.834 -18.5059 16.5527 -33.1543 16.5527 -45.9961 Z"/>
  </g>
  <g id="Medium-S" transform="matrix(1 0 0 1 1700.66 696)">
   <path d="M 6.83594 -45.9961 C 6.83594 -29.4922 20.4102 -13.1348 42.041 0.683594 C 43.3105 1.51367 44.873 2.29492 45.8984 2.29492 C 46.9238 2.29492 48.4863 1.51367 49.707 0.683594 C 71.3867 -13.1348 84.9609 -29.4922 84.9609 -45.9961 C 84.9609 -60.3516 75.0488 -70.2637 62.3535 -70.2637 C 54.9805 -70.2637 49.4141 -66.9922 45.8984 -62.1094 C 42.4316 -66.9434 36.8164 -70.2637 29.4434 -70.2637 C 16.748 -70.2637 6.83594 -60.3516 6.83594 -45.9961 Z M 15.3809 -46.0449 C 15.3809 -55.5176 21.582 -61.8652 29.8828 -61.8652 C 36.8164 -61.8652 40.5273 -57.666 42.8711 -54.2969 C 44.043 -52.5879 44.8242 -52.0508 45.8984 -52.0508 C 46.9727 -52.0508 47.6562 -52.6367 48.9258 -54.2969 C 51.416 -57.5684 55.0293 -61.8652 61.9141 -61.8652 C 70.2148 -61.8652 76.416 -55.5176 76.416 -46.0449 C 76.416 -32.6172 62.3535 -17.627 46.6797 -7.17773 C 46.2891 -6.93359 46.0449 -6.78711 45.8984 -6.78711 C 45.752 -6.78711 45.5078 -6.93359 45.1172 -7.17773 C 29.4434 -17.627 15.3809 -32.6172 15.3809 -46.0449 Z"/>
  </g>
  <g id="Regular-S" transform="matrix(1 0 0 1 1404.58 696)">
   <path d="M 6.83594 -46.0938 C 6.83594 -29.541 20.3125 -13.3301 42.2363 0.537109 C 43.1152 1.12305 44.4336 1.70898 45.2637 1.70898 C 46.1426 1.70898 47.4121 1.12305 48.291 0.537109 C 70.2148 -13.3301 83.6914 -29.541 83.6914 -46.0938 C 83.6914 -59.8633 74.2188 -69.6289 61.6211 -69.6289 C 54.3945 -69.6289 48.8281 -66.3574 45.2637 -61.377 C 41.748 -66.3086 36.1328 -69.6289 28.9062 -69.6289 C 16.3086 -69.6289 6.83594 -59.8633 6.83594 -46.0938 Z M 13.8672 -46.0938 C 13.8672 -56.0059 20.2637 -62.5977 28.8574 -62.5977 C 36.084 -62.5977 39.9902 -58.0566 42.3828 -54.5898 C 43.5547 -52.8809 44.2871 -52.3926 45.2637 -52.3926 C 46.2891 -52.3926 46.875 -52.9297 48.1445 -54.5898 C 50.7324 -57.959 54.4922 -62.5977 61.7188 -62.5977 C 70.3125 -62.5977 76.6602 -56.0059 76.6602 -46.0938 C 76.6602 -31.9336 61.5723 -16.4551 46.1426 -6.20117 C 45.7031 -5.9082 45.4102 -5.71289 45.2637 -5.71289 C 45.1172 -5.71289 44.8242 -5.9082 44.4336 -6.20117 C 28.9551 -16.4551 13.8672 -31.9336 13.8672 -46.0938 Z"/>
  </g>
  <g id="Light-S" transform="matrix(1 0 0 1 1108.68 696)">
   <path d="M 6.83594 -46.0938 C 6.83594 -29.9805 20.6055 -14.1113 41.8945 -0.439453 C 42.6758 0.0488281 43.7012 0.488281 44.4824 0.488281 C 45.2148 0.488281 46.2402 0.0488281 47.0215 -0.439453 C 68.3105 -14.1113 82.0801 -29.9805 82.0801 -46.0938 C 82.0801 -59.375 72.9492 -68.8477 60.6934 -68.8477 C 53.7109 -68.8477 47.8516 -65.3809 44.4824 -60.0098 C 41.1133 -65.332 35.2051 -68.8477 28.2227 -68.8477 C 15.9668 -68.8477 6.83594 -59.375 6.83594 -46.0938 Z M 12.2559 -46.0938 C 12.2559 -56.4453 18.9941 -63.3789 28.125 -63.3789 C 35.3027 -63.3789 39.5508 -58.9844 42.0898 -54.834 C 43.0176 -53.4668 43.6035 -53.0273 44.4824 -53.0273 C 45.3125 -53.0273 45.8496 -53.4668 46.8262 -54.834 C 49.5117 -58.8867 53.6621 -63.3789 60.791 -63.3789 C 69.9219 -63.3789 76.6602 -56.4453 76.6602 -46.0938 C 76.6602 -31.7871 61.6699 -16.5527 45.166 -5.56641 C 44.873 -5.37109 44.6289 -5.17578 44.4824 -5.17578 C 44.3359 -5.17578 44.0918 -5.37109 43.75 -5.56641 C 27.2461 -16.5527 12.2559 -31.7871 12.2559 -46.0938 Z"/>
  </g>
  <g id="Thin-S" transform="matrix(1 0 0 1 813.014 696)">
   <path d="M 6.83594 -46.0938 C 6.83594 -30.4688 21.0449 -15.1855 41.5039 -1.75781 C 42.041 -1.36719 42.8223 -1.07422 43.4082 -1.07422 C 43.9941 -1.07422 44.7754 -1.36719 45.3125 -1.75781 C 65.7715 -15.1855 79.9805 -30.4688 79.9805 -46.0938 C 79.9805 -58.7402 71.2402 -67.7734 59.5215 -67.7734 C 52.7832 -67.7734 46.4844 -64.0137 43.4082 -58.2031 C 40.332 -64.0137 34.0332 -67.7734 27.2461 -67.7734 C 15.5762 -67.7734 6.83594 -58.7402 6.83594 -46.0938 Z M 10.1562 -46.0938 C 10.1562 -56.9336 17.3828 -64.4531 27.2461 -64.4531 C 34.2773 -64.4531 38.9648 -60.1562 41.748 -55.1758 C 42.334 -54.1992 42.7734 -53.8574 43.4082 -53.8574 C 44.043 -53.8574 44.4336 -54.1992 45.0684 -55.1758 C 47.9004 -60.1074 52.5391 -64.4531 59.5703 -64.4531 C 69.4336 -64.4531 76.6602 -56.9336 76.6602 -46.0938 C 76.6602 -31.6406 61.7676 -16.6504 43.9453 -4.78516 C 43.75 -4.63867 43.5547 -4.49219 43.4082 -4.49219 C 43.2617 -4.49219 43.0664 -4.63867 42.8711 -4.78516 C 25.0488 -16.6504 10.1562 -31.6406 10.1562 -46.0938 Z"/>
  </g>
  <g id="Ultralight-S" transform="matrix(1 0 0 1 516.864 696)">
   <path d="M 6.83594 -46.0938 C 6.83594 -30.7617 21.2402 -15.7227 41.2598 -2.44141 C 41.6992 -2.14844 42.334 -1.85547 42.8711 -1.85547 C 43.3594 -1.85547 43.9941 -2.14844 44.4336 -2.44141 C 64.4531 -15.7227 78.8574 -30.7617 78.8574 -46.0938 C 78.8574 -58.3984 70.3613 -67.2363 58.9355 -67.2363 C 52.2949 -67.2363 45.8008 -63.3301 42.8711 -57.2754 C 39.8926 -63.3301 33.3984 -67.2363 26.7578 -67.2363 C 15.332 -67.2363 6.83594 -58.3984 6.83594 -46.0938 Z M 9.0332 -46.0938 C 9.0332 -57.2266 16.5527 -64.9902 26.7578 -64.9902 C 33.7402 -64.9902 38.623 -60.7422 41.5527 -55.3711 C 41.9922 -54.5898 42.334 -54.2969 42.8711 -54.2969 C 43.3594 -54.2969 43.7012 -54.5898 44.1406 -55.3711 C 47.0703 -60.7422 52.002 -64.9902 58.9355 -64.9902 C 69.1406 -64.9902 76.6602 -57.2266 76.6602 -46.0938 C 76.6602 -31.543 61.8164 -16.6992 43.3105 -4.3457 C 43.1641 -4.24805 43.0176 -4.15039 42.8711 -4.15039 C 42.7246 -4.15039 42.5293 -4.24805 42.3828 -4.3457 C 23.877 -16.6992 9.0332 -31.543 9.0332 -46.0938 Z"/>
  </g>
 </g>
</svg>
